#N canvas 4 25 1920 983 10;
#X text 177 277 creation arguments are OSC address;
#X text 179 238 set message to change OSC address;
#X text 164 48 1 Set IP Address : network address;
#X text 164 68 2 Set Ports (sending and listening);
#X text 164 87 3 Set OSC Addresses (routing osc data;
#X text 155 26 Key Settings;
#X floatatom 43 194 5 0 0 0 - - - 0;
#X obj 455 323 select 0 1 2 3 4 5 6 7 8;
#X floatatom 399 630 5 0 0 0 - - - 0;
#X obj 428 776 *~;
#X obj 426 867 dac~;
#X obj 369 590 mtof;
#X obj 384 556 + 0;
#X obj 458 685 vline~;
#X floatatom 488 602 5 0 0 0 - - - 0;
#X obj 488 549 loadbang;
#X floatatom 455 258 5 0 0 0 - - - 0;
#N canvas 1099 23 623 462 oscReceive 0;
#X obj 55 184 netreceive -u -b;
#X msg 78 143 listen 0;
#X text 152 143 stop listening;
#X text 64 58 packets from network;
#X text 173 177 UDP packets \, binary output, f 13;
#X obj 45 314 print;
#X obj 45 272 oscparse;
#X text 150 114 listen on port 8000;
#X obj 177 269 oscparse;
#X obj 177 293 list trim;
#X floatatom 140 380 5 0 0 0 - - - 0;
#X text 241 267 Parse the OSC message;
#X obj 177 319 route unity;
#X obj 139 357 route trigger;
#X obj 140 407 s osctrig;
#X msg 66 115 listen 8000;
#X obj 66 84 loadbang;
#X floatatom 244 382 5 0 0 0 - - - 0;
#X obj 243 359 route tempo;
#X obj 244 409 s osctempo;
#X floatatom 339 382 5 0 0 0 - - - 0;
#X obj 338 359 route playseq;
#X obj 339 409 s oscplayseq;
#X floatatom 437 382 5 0 0 0 - - - 0;
#X obj 436 359 route colwall;
#X obj 437 409 s oscwall;
#X connect 0 0 6 0;
#X connect 0 0 8 0;
#X connect 1 0 0 0;
#X connect 6 0 5 0;
#X connect 8 0 9 0;
#X connect 9 0 12 0;
#X connect 10 0 14 0;
#X connect 12 0 13 0;
#X connect 12 0 18 0;
#X connect 12 0 21 0;
#X connect 12 0 24 0;
#X connect 13 0 10 0;
#X connect 15 0 0 0;
#X connect 16 0 15 0;
#X connect 17 0 19 0;
#X connect 18 0 17 0;
#X connect 20 0 22 0;
#X connect 21 0 20 0;
#X connect 23 0 25 0;
#X connect 24 0 23 0;
#X restore 47 142 pd oscReceive;
#X obj 47 36 tgl 15 0 empty empty empty 17 7 0 10 #fcfcfc #000000 #000000 0 1;
#X msg 47 61 \; pd dsp \$1;
#X obj 455 225 r osctrig;
#X obj 44 278 oscformat PD message;
#X msg 76 239 set PD message;
#N canvas 727 97 450 300 oscSend 0;
#X msg 158 207 disconnect;
#X obj 61 253 netsend -u -b;
#X obj 59 55 list prepend send;
#X obj 59 80 list trim;
#X msg 150 175 connect 127.0.0.1 8001;
#X obj 59 29 r oscOut;
#X text 301 163 send to port 8001;
#X msg 147 148 connect localhost 8001;
#X obj 147 108 loadbang;
#X connect 0 0 1 0;
#X connect 2 0 3 0;
#X connect 3 0 1 0;
#X connect 4 0 1 0;
#X connect 5 0 2 0;
#X connect 7 0 1 0;
#X connect 8 0 7 0;
#X restore 47 118 pd oscSend;
#X obj 44 313 s oscOut;
#X obj 1322 348 metro 4000;
#X obj 1380 312 tgl 15 0 empty empty empty 17 7 0 10 #fcfcfc #000000 #000000 0 1;
#X floatatom 1436 317 5 0 0 0 - - - 0;
#X obj 1303 382 f;
#X obj 1346 384 + 1;
#X floatatom 1542 531 5 0 0 0 - - - 0;
#X obj 1542 478 loadbang;
#X obj 970 399 *~;
#X obj 971 536 dac~;
#X obj 1032 346 vline~;
#X obj 1496 265 r osctempo;
#X obj 1421 239 loadbang;
#X msg 1437 283 500;
#X obj 1327 240 r oscplayseq;
#X obj 354 704 osc~;
#X obj 1025 216 r oscwall;
#X msg 1542 505 48;
#X obj 406 709 osc~;
#X msg 488 576 60;
#X obj 408 682 * 1.5;
#X text 451 198 Tirgger when picking up rotating cube...;
#X text 946 189 Trigger noise burst when running into a wall;
#X text 1313 188 Sequence playback: tempo increases as more cubes are collected.;
#X msg 1208 569 0;
#X obj 1229 448 mod 8;
#X msg 1257 569 4;
#X msg 1298 568 9;
#X msg 1338 567 11;
#X obj 1286 477 select 0 1 2 3 4 5 6;
#X msg 1385 566 16;
#X msg 1429 566 4;
#X msg 1473 567 9;
#X floatatom 1318 749 5 0 0 0 - - - 0;
#X obj 1315 824 *~;
#X obj 1312 906 dac~;
#X obj 1317 718 mtof;
#X obj 1393 772 vline~;
#X msg 1392 715 1 25 \, 0 25 75;
#X obj 1318 777 osc~;
#X obj 1472 756 vsl 19 162 0 1 0 0 empty empty empty 0 -9 0 12 #fcfcfc #000000 #000000 0 1;
#X obj 1315 866 *~ 0;
#X obj 1316 650 + 48;
#X obj 1323 417 mod 8;
#X obj 386 525 line;
#X msg 458 633 0.85 100 \, 0 300 50;
#X msg 107 406 1 \, 2 200;
#X msg 172 406 1 \, 3 200;
#X msg 242 406 1 \, 4 200;
#X msg 312 406 1 \, 5 200;
#X msg 379 407 1 \, 6 200;
#X msg 444 407 1 \, 7 200;
#X msg 511 409 1 \, 8 200;
#X msg 573 410 1 \, 9 200;
#X obj 670 373 f;
#X obj 713 375 + 1;
#X obj 627 350 tgl 16 0 empty empty empty 0 -8 0 10 #fcfcfc #000000 #000000 0 1;
#X obj 639 430 select 0 1 2 3 4;
#X obj 660 404 mod 5;
#X obj 669 352 metro 200;
#X msg 562 458 7 50;
#X msg 600 459 9 50;
#X msg 637 459 12 50;
#X msg 674 459 9 50;
#X obj 959 277 line;
#X msg 1027 313 1 50 \, 0 1000 75;
#X obj 945 336 osc~;
#X msg 973 249 100 \, 0 200;
#X obj 1080 422 vsl 19 162 0 1 0 0 empty empty empty 0 -9 0 12 #fcfcfc #000000 #000000 0 1;
#X obj 561 718 vsl 19 162 0 1 0 0 empty empty empty 0 -9 0 12 #fcfcfc #000000 #000000 0 1;
#X obj 966 444 *~ 0;
#X obj 439 829 *~ 0;
#X connect 6 0 21 0;
#X connect 7 0 70 0;
#X connect 7 1 71 0;
#X connect 7 2 72 0;
#X connect 7 3 73 0;
#X connect 7 4 74 0;
#X connect 7 5 75 0;
#X connect 7 6 76 0;
#X connect 7 7 77 0;
#X connect 7 8 80 0;
#X connect 8 0 39 0;
#X connect 8 0 44 0;
#X connect 9 0 95 0;
#X connect 11 0 8 0;
#X connect 12 0 11 0;
#X connect 12 0 69 0;
#X connect 13 0 9 1;
#X connect 14 0 12 1;
#X connect 15 0 43 0;
#X connect 16 0 7 0;
#X connect 18 0 19 0;
#X connect 20 0 16 0;
#X connect 21 0 24 0;
#X connect 22 0 21 0;
#X connect 25 0 28 0;
#X connect 25 0 62 0;
#X connect 26 0 25 0;
#X connect 27 0 25 1;
#X connect 28 0 29 0;
#X connect 28 0 67 0;
#X connect 29 0 28 1;
#X connect 30 0 66 0;
#X connect 31 0 41 0;
#X connect 32 0 94 0;
#X connect 34 0 32 1;
#X connect 35 0 27 0;
#X connect 36 0 37 0;
#X connect 37 0 27 0;
#X connect 38 0 26 0;
#X connect 38 0 37 0;
#X connect 39 0 9 0;
#X connect 40 0 91 0;
#X connect 41 0 30 0;
#X connect 42 0 9 0;
#X connect 43 0 14 0;
#X connect 44 0 42 0;
#X connect 48 0 66 0;
#X connect 49 0 53 0;
#X connect 50 0 66 0;
#X connect 51 0 66 0;
#X connect 52 0 66 0;
#X connect 53 0 48 0;
#X connect 53 1 50 0;
#X connect 53 2 51 0;
#X connect 53 3 52 0;
#X connect 53 4 54 0;
#X connect 53 5 55 0;
#X connect 53 6 56 0;
#X connect 54 0 66 0;
#X connect 55 0 66 0;
#X connect 56 0 66 0;
#X connect 57 0 63 0;
#X connect 58 0 65 0;
#X connect 60 0 57 0;
#X connect 61 0 58 1;
#X connect 62 0 61 0;
#X connect 63 0 58 0;
#X connect 64 0 65 1;
#X connect 65 0 59 0;
#X connect 65 0 59 1;
#X connect 66 0 60 0;
#X connect 67 0 49 0;
#X connect 68 0 12 0;
#X connect 69 0 13 0;
#X connect 70 0 68 0;
#X connect 71 0 68 0;
#X connect 72 0 68 0;
#X connect 73 0 68 0;
#X connect 74 0 68 0;
#X connect 75 0 68 0;
#X connect 76 0 68 0;
#X connect 77 0 68 0;
#X connect 78 0 79 0;
#X connect 78 0 82 0;
#X connect 79 0 78 1;
#X connect 80 0 83 0;
#X connect 81 0 84 0;
#X connect 81 1 85 0;
#X connect 81 2 86 0;
#X connect 81 3 87 0;
#X connect 81 4 80 0;
#X connect 82 0 81 0;
#X connect 83 0 78 0;
#X connect 84 0 68 0;
#X connect 85 0 68 0;
#X connect 86 0 68 0;
#X connect 87 0 68 0;
#X connect 88 0 89 0;
#X connect 88 0 90 0;
#X connect 89 0 34 0;
#X connect 90 0 32 0;
#X connect 91 0 88 0;
#X connect 92 0 94 1;
#X connect 93 0 95 1;
#X connect 94 0 33 0;
#X connect 94 0 33 1;
#X connect 95 0 10 0;
#X connect 95 0 10 1;
