#N canvas 421 -16 1920 997 12;
#X obj 19 22 tgl 15 0 empty empty empty 17 7 0 10 #fcfcfc #000000 #000000 0 1;
#X msg 19 46 \; pd dsp \$1;
#X text 52 19 Enables audio;
#X obj 352 189 metro 4000;
#X obj 354 156 tgl 15 0 empty empty empty 17 7 0 10 #fcfcfc #000000 #000000 0 1;
#X floatatom 410 161 5 0 0 0 - - - 0;
#X obj 333 223 f;
#X obj 376 225 + 1;
#X floatatom 516 375 5 0 0 0 - - - 0;
#X obj 516 322 loadbang;
#X obj 470 109 r osctempo;
#X obj 395 83 loadbang;
#X msg 411 127 500;
#X obj 301 84 r oscplayseq;
#X msg 516 349 48;
#X text 287 32 Sequence playback: tempo increases as more cubes are collected.;
#X msg 182 413 0;
#X msg 231 413 4;
#X msg 272 412 9;
#X msg 312 411 11;
#X obj 260 321 select 0 1 2 3 4 5 6;
#X msg 359 410 16;
#X msg 403 410 4;
#X msg 447 411 9;
#X floatatom 292 593 5 0 0 0 - - - 0;
#X obj 289 668 *~;
#X obj 286 750 dac~;
#X obj 291 562 mtof;
#X obj 367 616 vline~;
#X msg 367 564 1 25 \, 0 25 75;
#X obj 292 621 osc~;
#X obj 442 597 vsl 19 162 0 1 0 0 empty empty empty 0 -9 0 12 #fcfcfc #000000 #000000 0 1;
#X obj 289 710 *~ 0;
#X obj 290 494 + 48;
#X msg 72 137 0;
#X text 107 137 Reset value of variable to 0;
#X obj 1538 149 metro 4000;
#X obj 1540 116 tgl 15 0 empty empty empty 17 7 0 10 #fcfcfc #000000 #000000 0 1;
#X floatatom 1596 121 5 0 0 0 - - - 0;
#X obj 1519 183 f;
#X obj 1562 185 + 1;
#X floatatom 1702 335 5 0 0 0 - - - 0;
#X obj 1702 282 loadbang;
#X obj 1656 69 r osctempo;
#X obj 1581 43 loadbang;
#X msg 1597 87 500;
#X obj 1487 44 r oscplayseq;
#X msg 1702 309 48;
#X msg 1307 375 0;
#X msg 1356 375 4;
#X msg 1397 374 9;
#X msg 1437 373 11;
#X msg 1484 372 16;
#X msg 1528 372 4;
#X msg 1572 373 9;
#X floatatom 1478 553 5 0 0 0 - - - 0;
#X obj 1475 628 *~;
#X obj 1472 710 dac~;
#X obj 1477 522 mtof;
#X obj 1553 576 vline~;
#X msg 1553 524 1 25 \, 0 25 75;
#X obj 1478 581 osc~;
#X obj 1620 565 vsl 19 162 0 1 0 0 empty empty empty 0 -9 0 12 #fcfcfc #000000 #000000 0 1;
#X obj 1475 670 *~ 0;
#X obj 1476 454 + 48;
#X msg 1258 97 0;
#X text 1293 97 Reset value of variable to 0;
#X msg 1612 372 0;
#X obj 259 289 mod 7;
#X obj 1445 249 mod 11;
#X obj 1446 281 select 0 1 2 3 4 5 6 7 8 9 10;
#X msg 1651 372 18;
#X obj 988 137 metro 4000;
#X obj 990 104 tgl 15 0 empty empty empty 17 7 0 10 #fcfcfc #000000 #000000 0 1;
#X floatatom 1046 109 5 0 0 0 - - - 0;
#X obj 969 171 f;
#X obj 1012 173 + 1;
#X floatatom 1152 323 5 0 0 0 - - - 0;
#X obj 1152 270 loadbang;
#X obj 1106 57 r osctempo;
#X obj 1031 31 loadbang;
#X msg 1047 75 500;
#X obj 937 32 r oscplayseq;
#X msg 1152 297 48;
#X msg 757 363 0;
#X msg 806 363 4;
#X msg 847 362 9;
#X msg 887 361 11;
#X msg 934 360 16;
#X msg 978 360 4;
#X msg 1022 361 9;
#X floatatom 928 541 5 0 0 0 - - - 0;
#X obj 925 616 *~;
#X obj 922 698 dac~;
#X obj 927 510 mtof;
#X obj 1003 564 vline~;
#X msg 1003 512 1 25 \, 0 25 75;
#X obj 928 569 osc~;
#X obj 1070 553 vsl 19 162 0 1 0 0 empty empty empty 0 -9 0 12 #fcfcfc #000000 #000000 0 1;
#X obj 925 658 *~ 0;
#X obj 926 442 + 48;
#X msg 708 85 0;
#X text 743 85 Reset value of variable to 0;
#X msg 1062 360 0;
#X msg 1101 360 18;
#X obj 896 269 select 0 1 2 3 4 5 6 7 8;
#X obj 895 237 mod 9;
#X obj 628 865 metro 4000;
#X obj 630 832 tgl 15 0 empty empty empty 17 7 0 10 #fcfcfc #000000 #000000 0 1;
#X floatatom 686 837 5 0 0 0 - - - 0;
#X obj 609 899 f;
#X obj 652 901 + 1;
#X floatatom 744 1075 5 0 0 0 - - - 0;
#X obj 744 1022 loadbang;
#X obj 746 785 r osctempo;
#X obj 671 759 loadbang;
#X msg 687 803 500;
#X obj 577 760 r oscplayseq;
#X msg 744 1049 48;
#X msg 349 1115 0;
#X msg 398 1115 4;
#X msg 439 1114 9;
#X msg 479 1113 11;
#X msg 526 1112 16;
#X msg 570 1112 4;
#X msg 614 1113 9;
#X floatatom 520 1293 5 0 0 0 - - - 0;
#X obj 517 1368 *~;
#X obj 514 1450 dac~;
#X obj 519 1262 mtof;
#X obj 595 1316 vline~;
#X msg 595 1264 1 25 \, 0 25 75;
#X obj 520 1321 osc~;
#X obj 662 1305 vsl 19 162 0 1 0 0 empty empty empty 0 -9 0 12 #fcfcfc #000000 #000000 0 1;
#X obj 517 1410 *~ 0;
#X obj 518 1194 + 48;
#X msg 348 813 0;
#X text 383 813 Reset value of variable to 0;
#X msg 654 1112 0;
#X msg 693 1112 18;
#X obj 535 965 mod 13;
#X obj 466 1021 select 0 1 2 3 4 5 6 7 8 9 10 11 12;
#X msg 1692 372 6;
#X msg 1713 221 11;
#X msg 734 1112 6;
#X msg 774 1112 11;
#X msg 818 1113 8;
#X msg 857 1112 4;
#X text 469 663 volume control (min 0 \, max 1);
#X msg 1736 373 11;
#X connect 0 0 1 0;
#X connect 3 0 6 0;
#X connect 3 0 29 0;
#X connect 4 0 3 0;
#X connect 5 0 3 1;
#X connect 6 0 7 0;
#X connect 6 0 68 0;
#X connect 7 0 6 1;
#X connect 8 0 33 0;
#X connect 9 0 14 0;
#X connect 10 0 5 0;
#X connect 11 0 12 0;
#X connect 12 0 5 0;
#X connect 13 0 4 0;
#X connect 13 0 12 0;
#X connect 14 0 8 0;
#X connect 16 0 33 0;
#X connect 17 0 33 0;
#X connect 18 0 33 0;
#X connect 19 0 33 0;
#X connect 20 0 16 0;
#X connect 20 1 17 0;
#X connect 20 2 18 0;
#X connect 20 3 19 0;
#X connect 20 4 21 0;
#X connect 20 5 22 0;
#X connect 20 6 23 0;
#X connect 21 0 33 0;
#X connect 22 0 33 0;
#X connect 23 0 33 0;
#X connect 24 0 30 0;
#X connect 25 0 32 0;
#X connect 27 0 24 0;
#X connect 28 0 25 1;
#X connect 29 0 28 0;
#X connect 30 0 25 0;
#X connect 31 0 32 1;
#X connect 32 0 26 0;
#X connect 32 0 26 1;
#X connect 33 0 27 0;
#X connect 34 0 6 0;
#X connect 36 0 39 0;
#X connect 36 0 60 0;
#X connect 37 0 36 0;
#X connect 38 0 36 1;
#X connect 39 0 40 0;
#X connect 39 0 69 0;
#X connect 40 0 39 1;
#X connect 41 0 64 0;
#X connect 42 0 47 0;
#X connect 43 0 38 0;
#X connect 44 0 45 0;
#X connect 45 0 38 0;
#X connect 46 0 37 0;
#X connect 46 0 45 0;
#X connect 47 0 41 0;
#X connect 48 0 64 0;
#X connect 49 0 64 0;
#X connect 50 0 64 0;
#X connect 51 0 64 0;
#X connect 52 0 64 0;
#X connect 53 0 64 0;
#X connect 54 0 64 0;
#X connect 55 0 61 0;
#X connect 56 0 63 0;
#X connect 58 0 55 0;
#X connect 59 0 56 1;
#X connect 60 0 59 0;
#X connect 61 0 56 0;
#X connect 62 0 63 1;
#X connect 63 0 57 0;
#X connect 63 0 57 1;
#X connect 64 0 58 0;
#X connect 65 0 39 0;
#X connect 67 0 64 0;
#X connect 68 0 20 0;
#X connect 69 0 70 0;
#X connect 70 0 48 0;
#X connect 70 1 49 0;
#X connect 70 2 50 0;
#X connect 70 3 51 0;
#X connect 70 4 52 0;
#X connect 70 5 53 0;
#X connect 70 6 54 0;
#X connect 70 7 67 0;
#X connect 70 8 71 0;
#X connect 70 9 142 0;
#X connect 70 10 143 0;
#X connect 70 10 149 0;
#X connect 71 0 64 0;
#X connect 72 0 75 0;
#X connect 72 0 96 0;
#X connect 73 0 72 0;
#X connect 74 0 72 1;
#X connect 75 0 76 0;
#X connect 75 0 106 0;
#X connect 76 0 75 1;
#X connect 77 0 100 0;
#X connect 78 0 83 0;
#X connect 79 0 74 0;
#X connect 80 0 81 0;
#X connect 81 0 74 0;
#X connect 82 0 73 0;
#X connect 82 0 81 0;
#X connect 83 0 77 0;
#X connect 84 0 100 0;
#X connect 85 0 100 0;
#X connect 86 0 100 0;
#X connect 87 0 100 0;
#X connect 88 0 100 0;
#X connect 89 0 100 0;
#X connect 90 0 100 0;
#X connect 91 0 97 0;
#X connect 92 0 99 0;
#X connect 94 0 91 0;
#X connect 95 0 92 1;
#X connect 96 0 95 0;
#X connect 97 0 92 0;
#X connect 98 0 99 1;
#X connect 99 0 93 0;
#X connect 99 0 93 1;
#X connect 100 0 94 0;
#X connect 101 0 75 0;
#X connect 103 0 100 0;
#X connect 104 0 100 0;
#X connect 105 0 84 0;
#X connect 105 1 85 0;
#X connect 105 2 86 0;
#X connect 105 3 87 0;
#X connect 105 4 88 0;
#X connect 105 5 89 0;
#X connect 105 6 90 0;
#X connect 105 7 103 0;
#X connect 105 8 104 0;
#X connect 106 0 105 0;
#X connect 107 0 110 0;
#X connect 107 0 131 0;
#X connect 108 0 107 0;
#X connect 109 0 107 1;
#X connect 110 0 111 0;
#X connect 110 0 140 0;
#X connect 111 0 110 1;
#X connect 112 0 135 0;
#X connect 113 0 118 0;
#X connect 114 0 109 0;
#X connect 115 0 116 0;
#X connect 116 0 109 0;
#X connect 117 0 108 0;
#X connect 117 0 116 0;
#X connect 118 0 112 0;
#X connect 119 0 135 0;
#X connect 120 0 135 0;
#X connect 121 0 135 0;
#X connect 122 0 135 0;
#X connect 123 0 135 0;
#X connect 124 0 135 0;
#X connect 125 0 135 0;
#X connect 126 0 132 0;
#X connect 127 0 134 0;
#X connect 129 0 126 0;
#X connect 130 0 127 1;
#X connect 131 0 130 0;
#X connect 132 0 127 0;
#X connect 133 0 134 1;
#X connect 134 0 128 0;
#X connect 134 0 128 1;
#X connect 135 0 129 0;
#X connect 136 0 110 0;
#X connect 138 0 135 0;
#X connect 139 0 135 0;
#X connect 140 0 141 0;
#X connect 141 0 119 0;
#X connect 141 1 120 0;
#X connect 141 2 121 0;
#X connect 141 3 122 0;
#X connect 141 4 123 0;
#X connect 141 5 124 0;
#X connect 141 6 125 0;
#X connect 141 7 138 0;
#X connect 141 8 139 0;
#X connect 141 9 144 0;
#X connect 141 10 145 0;
#X connect 141 11 146 0;
#X connect 141 12 147 0;
#X connect 142 0 64 0;
#X connect 143 0 64 0;
#X connect 144 0 135 0;
#X connect 145 0 135 0;
#X connect 146 0 135 0;
#X connect 147 0 135 0;
#X connect 149 0 64 0;
