#N canvas -122 -17 1920 997 12;
#X obj 19 22 tgl 15 0 empty empty empty 17 7 0 10 #fcfcfc #000000 #000000 0 1;
#X msg 19 46 \; pd dsp \$1;
#X text 52 19 Enables audio;
#X obj 352 189 metro 4000;
#X obj 354 156 tgl 15 0 empty empty empty 17 7 0 10 #fcfcfc #000000 #000000 0 1;
#X floatatom 410 161 5 0 0 0 - - - 0;
#X obj 333 223 f;
#X obj 376 225 + 1;
#X floatatom 448 521 5 0 0 0 - - - 0;
#X obj 448 468 loadbang;
#X obj 395 83 loadbang;
#X msg 411 127 500;
#X obj 301 84 r oscplayseq;
#X msg 448 495 48;
#X msg 32 456 0;
#X msg 81 456 4;
#X msg 122 455 9;
#X msg 162 454 11;
#X obj 110 364 select 0 1 2 3 4 5 6;
#X msg 209 453 16;
#X msg 253 453 4;
#X msg 297 454 9;
#X floatatom 159 667 5 0 0 0 - - - 0;
#X obj 156 742 *~;
#X obj 153 824 dac~;
#X obj 158 636 mtof;
#X obj 234 690 vline~;
#X msg 234 638 1 25 \, 0 25 75;
#X obj 159 695 osc~;
#X obj 309 671 vsl 19 162 0 1 0 0 empty empty empty 0 -9 0 12 #fcfcfc #000000 #000000 0 1;
#X obj 156 784 *~ 0;
#X obj 157 568 + 48;
#X msg 72 137 0;
#X text 107 137 Reset value of variable to 0;
#X obj 1538 149 metro 4000;
#X obj 1540 116 tgl 15 0 empty empty empty 17 7 0 10 #fcfcfc #000000 #000000 0 1;
#X floatatom 1596 121 5 0 0 0 - - - 0;
#X obj 1519 183 f;
#X obj 1562 185 + 1;
#X floatatom 1702 335 5 0 0 0 - - - 0;
#X obj 1702 282 loadbang;
#X obj 1656 69 r osctempo;
#X obj 1581 43 loadbang;
#X msg 1597 87 500;
#X obj 1487 44 r oscplayseq;
#X msg 1702 309 48;
#X msg 1307 375 0;
#X msg 1356 375 4;
#X msg 1397 374 9;
#X msg 1437 373 11;
#X msg 1484 372 16;
#X msg 1528 372 4;
#X msg 1572 373 9;
#X floatatom 1478 553 5 0 0 0 - - - 0;
#X obj 1475 628 *~;
#X obj 1472 710 dac~;
#X obj 1477 522 mtof;
#X obj 1553 576 vline~;
#X msg 1553 524 1 25 \, 0 25 75;
#X obj 1478 581 osc~;
#X obj 1620 565 vsl 19 162 0 1 0 0 empty empty empty 0 -9 0 12 #fcfcfc #000000 #000000 0 1;
#X obj 1475 670 *~ 0;
#X obj 1476 454 + 48;
#X msg 1258 97 0;
#X text 1293 97 Reset value of variable to 0;
#X msg 1612 372 0;
#X obj 1453 248 mod 11;
#X obj 1446 281 select 0 1 2 3 4 5 6 7 8 9 10;
#X msg 1651 372 18;
#X obj 988 137 metro 4000;
#X obj 990 104 tgl 15 0 empty empty empty 17 7 0 10 #fcfcfc #000000 #000000 0 1;
#X floatatom 1046 109 5 0 0 0 - - - 0;
#X obj 969 171 f;
#X obj 1012 173 + 1;
#X floatatom 1152 323 5 0 0 0 - - - 0;
#X obj 1152 270 loadbang;
#X obj 1106 57 r osctempo;
#X obj 1031 31 loadbang;
#X msg 1047 75 500;
#X obj 937 32 r oscplayseq;
#X msg 1152 297 48;
#X msg 757 363 0;
#X msg 806 363 4;
#X msg 847 362 9;
#X msg 887 361 11;
#X msg 934 360 16;
#X msg 978 360 4;
#X msg 1022 361 9;
#X floatatom 1072 507 5 0 0 0 - - - 0;
#X obj 1069 582 *~;
#X obj 1066 664 dac~;
#X obj 1071 476 mtof;
#X obj 1147 530 vline~;
#X msg 1147 478 1 25 \, 0 25 75;
#X obj 1072 535 osc~;
#X obj 1214 519 vsl 19 162 0 1 0 0 empty empty empty 0 -9 0 12 #fcfcfc #000000 #000000 0 1;
#X obj 1069 624 *~ 0;
#X obj 1070 408 + 48;
#X msg 708 85 0;
#X text 743 85 Reset value of variable to 0;
#X msg 1062 360 0;
#X msg 1101 360 18;
#X obj 896 269 select 0 1 2 3 4 5 6 7 8;
#X obj 909 975 metro 4000;
#X obj 929 831 tgl 15 0 empty empty empty 17 7 0 10 #fcfcfc #000000 #000000 0 1;
#X floatatom 985 836 5 0 0 0 - - - 0;
#X obj 842 1040 f;
#X obj 885 1042 + 1;
#X floatatom 1320 1220 5 0 0 0 - - - 0;
#X obj 1320 1167 loadbang;
#X obj 970 758 loadbang;
#X msg 986 802 500;
#X obj 876 759 r oscplayseq;
#X msg 1320 1194 48;
#X msg 668 1272 0;
#X msg 717 1272 4;
#X msg 758 1271 9;
#X msg 798 1270 11;
#X msg 845 1269 16;
#X msg 889 1269 4;
#X msg 933 1270 9;
#X floatatom 839 1450 5 0 0 0 - - - 0;
#X obj 836 1525 *~;
#X obj 833 1607 dac~;
#X obj 838 1419 mtof;
#X obj 914 1473 vline~;
#X msg 914 1421 1 25 \, 0 25 75;
#X obj 839 1478 osc~;
#X obj 981 1462 vsl 19 162 0 1 0 0 empty empty empty 0 -9 0 12 #fcfcfc #000000 #000000 0 1;
#X obj 836 1567 *~ 0;
#X obj 837 1351 + 48;
#X msg 628 883 0;
#X text 663 883 Reset value of variable to 0;
#X msg 973 1269 0;
#X msg 1012 1269 18;
#X msg 1692 372 6;
#X msg 1053 1269 6;
#X msg 1093 1269 11;
#X msg 1137 1270 8;
#X msg 1176 1269 4;
#X text 336 737 volume control (min 0 \, max 1);
#X msg 1736 373 11;
#X floatatom 1079 1001 5 0 0 0 - - - 0;
#X obj 1065 946 r osctrig;
#X text 709 729 Sequence playback: Music gets longer as more cubes are collected.;
#X obj 185 298 mod 7;
#X obj 932 214 mod 9;
#X obj 1082 1056 + 7;
#X obj 947 1139 mod 0;
#X obj 1488 951 div 2;
#X floatatom 1061 1090 5 0 0 0 - - - 0;
#X floatatom 783 1141 5 0 0 0 - - - 0;
#X floatatom 1517 910 5 0 0 0 - - - 0;
#X obj 1517 857 loadbang;
#X msg 1517 884 60;
#X msg 1217 1269 2;
#X msg 1256 1268 1;
#X obj 785 1178 select 0 1 2 3 4 5 6 7 8 9 10 11 12 13 14;
#X text 698 991 increment variable by 1 with each metronome tick;
#X text 1118 1053 increment input by 7 because default loop length is 8;
#X text 706 1117 debug box to see sent value;
#X text 542 1261 sequence of notes;
#X text 1009 1500 volume control (min 0 \, max 1);
#X text 1061 919 Trigger when picking up rotating cube...;
#X text 1122 1003 debug box to see sent value;
#X text 942 1072 debug box to see sent value;
#X text 989 1138 sort sent value into repeating note sequence;
#X text 733 830 toggle to enable metronome;
#X connect 0 0 1 0;
#X connect 3 0 6 0;
#X connect 3 0 27 0;
#X connect 4 0 3 0;
#X connect 5 0 3 1;
#X connect 6 0 7 0;
#X connect 6 0 145 0;
#X connect 7 0 6 1;
#X connect 8 0 31 0;
#X connect 9 0 13 0;
#X connect 10 0 11 0;
#X connect 11 0 5 0;
#X connect 12 0 4 0;
#X connect 12 0 11 0;
#X connect 13 0 8 0;
#X connect 14 0 31 0;
#X connect 15 0 31 0;
#X connect 16 0 31 0;
#X connect 17 0 31 0;
#X connect 18 0 14 0;
#X connect 18 1 15 0;
#X connect 18 2 16 0;
#X connect 18 3 17 0;
#X connect 18 4 19 0;
#X connect 18 5 20 0;
#X connect 18 6 21 0;
#X connect 19 0 31 0;
#X connect 20 0 31 0;
#X connect 21 0 31 0;
#X connect 22 0 28 0;
#X connect 23 0 30 0;
#X connect 25 0 22 0;
#X connect 26 0 23 1;
#X connect 27 0 26 0;
#X connect 28 0 23 0;
#X connect 29 0 30 1;
#X connect 30 0 24 0;
#X connect 30 0 24 1;
#X connect 31 0 25 0;
#X connect 32 0 6 0;
#X connect 34 0 37 0;
#X connect 34 0 58 0;
#X connect 35 0 34 0;
#X connect 36 0 34 1;
#X connect 37 0 38 0;
#X connect 37 0 66 0;
#X connect 38 0 37 1;
#X connect 39 0 62 0;
#X connect 40 0 45 0;
#X connect 41 0 36 0;
#X connect 42 0 43 0;
#X connect 43 0 36 0;
#X connect 44 0 35 0;
#X connect 44 0 43 0;
#X connect 45 0 39 0;
#X connect 46 0 62 0;
#X connect 47 0 62 0;
#X connect 48 0 62 0;
#X connect 49 0 62 0;
#X connect 50 0 62 0;
#X connect 51 0 62 0;
#X connect 52 0 62 0;
#X connect 53 0 59 0;
#X connect 54 0 61 0;
#X connect 56 0 53 0;
#X connect 57 0 54 1;
#X connect 58 0 57 0;
#X connect 59 0 54 0;
#X connect 60 0 61 1;
#X connect 61 0 55 0;
#X connect 61 0 55 1;
#X connect 62 0 56 0;
#X connect 63 0 37 0;
#X connect 65 0 62 0;
#X connect 66 0 67 0;
#X connect 67 0 46 0;
#X connect 67 1 47 0;
#X connect 67 2 48 0;
#X connect 67 3 49 0;
#X connect 67 4 50 0;
#X connect 67 5 51 0;
#X connect 67 6 52 0;
#X connect 67 7 65 0;
#X connect 67 8 68 0;
#X connect 67 9 135 0;
#X connect 67 10 141 0;
#X connect 68 0 62 0;
#X connect 69 0 72 0;
#X connect 69 0 93 0;
#X connect 70 0 69 0;
#X connect 71 0 69 1;
#X connect 72 0 73 0;
#X connect 72 0 146 0;
#X connect 73 0 72 1;
#X connect 74 0 97 0;
#X connect 75 0 80 0;
#X connect 76 0 71 0;
#X connect 77 0 78 0;
#X connect 78 0 71 0;
#X connect 79 0 70 0;
#X connect 79 0 78 0;
#X connect 80 0 74 0;
#X connect 81 0 97 0;
#X connect 82 0 97 0;
#X connect 83 0 97 0;
#X connect 84 0 97 0;
#X connect 85 0 97 0;
#X connect 86 0 97 0;
#X connect 87 0 97 0;
#X connect 88 0 94 0;
#X connect 89 0 96 0;
#X connect 91 0 88 0;
#X connect 92 0 89 1;
#X connect 93 0 92 0;
#X connect 94 0 89 0;
#X connect 95 0 96 1;
#X connect 96 0 90 0;
#X connect 96 0 90 1;
#X connect 97 0 91 0;
#X connect 98 0 72 0;
#X connect 100 0 97 0;
#X connect 101 0 97 0;
#X connect 102 0 81 0;
#X connect 102 1 82 0;
#X connect 102 2 83 0;
#X connect 102 3 84 0;
#X connect 102 4 85 0;
#X connect 102 5 86 0;
#X connect 102 6 87 0;
#X connect 102 7 100 0;
#X connect 102 8 101 0;
#X connect 103 0 106 0;
#X connect 103 0 126 0;
#X connect 104 0 103 0;
#X connect 105 0 103 1;
#X connect 106 0 107 0;
#X connect 106 0 148 0;
#X connect 107 0 106 1;
#X connect 108 0 130 0;
#X connect 109 0 113 0;
#X connect 110 0 111 0;
#X connect 111 0 105 0;
#X connect 112 0 104 0;
#X connect 112 0 111 0;
#X connect 113 0 108 0;
#X connect 114 0 130 0;
#X connect 115 0 130 0;
#X connect 116 0 130 0;
#X connect 117 0 130 0;
#X connect 118 0 130 0;
#X connect 119 0 130 0;
#X connect 120 0 130 0;
#X connect 121 0 127 0;
#X connect 122 0 129 0;
#X connect 124 0 121 0;
#X connect 125 0 122 1;
#X connect 126 0 125 0;
#X connect 127 0 122 0;
#X connect 128 0 129 1;
#X connect 129 0 123 0;
#X connect 129 0 123 1;
#X connect 130 0 124 0;
#X connect 131 0 106 0;
#X connect 133 0 130 0;
#X connect 134 0 130 0;
#X connect 135 0 62 0;
#X connect 136 0 130 0;
#X connect 137 0 130 0;
#X connect 138 0 130 0;
#X connect 139 0 130 0;
#X connect 141 0 62 0;
#X connect 142 0 147 0;
#X connect 143 0 142 0;
#X connect 145 0 18 0;
#X connect 146 0 102 0;
#X connect 147 0 150 0;
#X connect 148 0 151 0;
#X connect 150 0 148 1;
#X connect 151 0 157 0;
#X connect 153 0 154 0;
#X connect 154 0 152 0;
#X connect 155 0 130 0;
#X connect 156 0 130 0;
#X connect 157 0 114 0;
#X connect 157 1 115 0;
#X connect 157 2 116 0;
#X connect 157 3 117 0;
#X connect 157 4 118 0;
#X connect 157 5 119 0;
#X connect 157 6 120 0;
#X connect 157 7 133 0;
#X connect 157 8 134 0;
#X connect 157 9 136 0;
#X connect 157 10 137 0;
#X connect 157 11 138 0;
#X connect 157 12 139 0;
#X connect 157 13 155 0;
#X connect 157 14 156 0;
