#N canvas 293 -18 1920 997 10;
#X text 164 48 1 Set IP Address : network address;
#X text 164 68 2 Set Ports (sending and listening);
#X text 164 87 3 Set OSC Addresses (routing osc data;
#X text 155 26 Key Settings;
#X floatatom 43 194 5 0 0 0 - - - 0;
#N canvas 1099 23 1920 956 oscReceive 0;
#X obj 55 184 netreceive -u -b;
#X msg 78 143 listen 0;
#X text 152 143 stop listening;
#X text 64 58 packets from network;
#X text 173 177 UDP packets \, binary output, f 13;
#X obj 45 314 print;
#X obj 45 272 oscparse;
#X text 150 114 listen on port 8000;
#X obj 177 269 oscparse;
#X obj 177 293 list trim;
#X floatatom 140 380 5 0 0 0 - - - 0;
#X text 241 267 Parse the OSC message;
#X obj 177 319 route unity;
#X obj 139 357 route trigger;
#X obj 140 407 s osctrig;
#X msg 66 115 listen 8000;
#X obj 66 84 loadbang;
#X floatatom 244 382 5 0 0 0 - - - 0;
#X obj 243 359 route tempo;
#X obj 244 409 s osctempo;
#X floatatom 339 382 5 0 0 0 - - - 0;
#X obj 338 359 route playseq;
#X obj 339 409 s oscplayseq;
#X floatatom 437 382 5 0 0 0 - - - 0;
#X obj 437 359 route colwall;
#X obj 437 409 s oscwall;
#X floatatom 550 378 5 0 0 0 - - - 0;
#X obj 549 349 route speed;
#X obj 551 402 s oscspeed;
#X connect 0 0 6 0;
#X connect 0 0 8 0;
#X connect 1 0 0 0;
#X connect 6 0 5 0;
#X connect 8 0 9 0;
#X connect 9 0 12 0;
#X connect 10 0 14 0;
#X connect 12 0 13 0;
#X connect 12 0 18 0;
#X connect 12 0 21 0;
#X connect 12 0 24 0;
#X connect 12 0 27 0;
#X connect 13 0 10 0;
#X connect 15 0 0 0;
#X connect 16 0 15 0;
#X connect 17 0 19 0;
#X connect 18 0 17 0;
#X connect 20 0 22 0;
#X connect 21 0 20 0;
#X connect 23 0 25 0;
#X connect 24 0 23 0;
#X connect 26 0 28 0;
#X connect 27 0 26 0;
#X restore 47 142 pd oscReceive;
#X obj 47 36 tgl 15 0 empty empty empty 17 7 0 10 #fcfcfc #000000 #000000 0 1;
#X msg 47 61 \; pd dsp \$1;
#X obj 44 278 oscformat PD message;
#X msg 76 239 set PD message;
#N canvas 727 97 450 300 oscSend 0;
#X msg 158 207 disconnect;
#X obj 61 253 netsend -u -b;
#X obj 59 55 list prepend send;
#X obj 59 80 list trim;
#X msg 150 175 connect 127.0.0.1 8001;
#X obj 59 29 r oscOut;
#X text 301 163 send to port 8001;
#X msg 147 148 connect localhost 8001;
#X obj 147 108 loadbang;
#X connect 0 0 1 0;
#X connect 2 0 3 0;
#X connect 3 0 1 0;
#X connect 4 0 1 0;
#X connect 5 0 2 0;
#X connect 7 0 1 0;
#X connect 8 0 7 0;
#X restore 47 118 pd oscSend;
#X obj 44 313 s oscOut;
#X obj 984 764 r oscspeed;
#X floatatom 983 792 5 0 0 0 - - - 0;
#X text 1072 780 Receive the Speed of the rigidbody;
#X obj 906 834 noise~;
#X obj 932 873 lop~, f 9;
#X floatatom 983 839 5 0 0 0 - - - 0;
#X obj 932 948 dac~;
#X obj 932 909 *~ 1;
#X obj 1018 890 hsl 136 16 0 1 0 0 empty empty empty -2 -8 0 10 #fcfcfc #000000 #000000 0 1;
#X obj 983 814 * 150;
#X text 1058 813 Increases the cutoff frequency of the low pass filter as the speed increases;
#X text 1016 917 Volume control for the noise sound;
#X obj 1521 401 metro 4000;
#X obj 1523 368 tgl 15 0 empty empty empty 17 7 0 10 #fcfcfc #000000 #000000 0 1;
#X floatatom 1579 373 5 0 0 0 - - - 0;
#X obj 1502 435 f;
#X obj 1545 437 + 1;
#X floatatom 1685 587 5 0 0 0 - - - 0;
#X obj 1685 534 loadbang;
#X obj 1639 321 r osctempo;
#X obj 1564 295 loadbang;
#X msg 1580 339 500;
#X obj 1470 296 r oscplayseq;
#X msg 1685 561 48;
#X msg 1351 625 0;
#X obj 1428 501 mod 8;
#X msg 1400 625 4;
#X msg 1441 624 9;
#X msg 1481 623 11;
#X obj 1429 533 select 0 1 2 3 4 5 6;
#X msg 1528 622 16;
#X msg 1572 622 4;
#X msg 1616 623 9;
#X floatatom 1461 805 5 0 0 0 - - - 0;
#X obj 1458 880 *~;
#X obj 1455 962 dac~;
#X obj 1460 774 mtof;
#X obj 1536 828 vline~;
#X msg 1536 776 1 25 \, 0 25 75;
#X obj 1461 833 osc~;
#X obj 1611 809 vsl 19 162 0 1 0 0 empty empty empty 0 -9 0 12 #fcfcfc #000000 #000000 0 1;
#X obj 1458 922 *~ 0;
#X obj 1459 706 + 48;
#X obj 1522 470 mod 8;
#X obj 455 323 select 0 1 2 3 4 5 6 7 8;
#X floatatom 399 630 5 0 0 0 - - - 0;
#X obj 428 776 *~;
#X obj 426 867 dac~;
#X obj 369 590 mtof;
#X obj 384 556 + 0;
#X obj 458 685 vline~;
#X floatatom 488 602 5 0 0 0 - - - 0;
#X obj 488 549 loadbang;
#X floatatom 455 258 5 0 0 0 - - - 0;
#X obj 455 225 r osctrig;
#X obj 970 399 *~;
#X obj 971 536 dac~;
#X obj 1032 346 vline~;
#X obj 354 704 osc~;
#X obj 1025 216 r oscwall;
#X obj 406 709 osc~;
#X msg 488 576 60;
#X obj 408 682 * 1.5;
#X obj 386 525 line;
#X msg 458 633 0.85 100 \, 0 300 50;
#X msg 119 389 1 \, 2 200;
#X msg 184 389 1 \, 3 200;
#X msg 254 389 1 \, 4 200;
#X msg 324 389 1 \, 5 200;
#X msg 391 390 1 \, 6 200;
#X msg 456 390 1 \, 7 200;
#X msg 523 392 1 \, 8 200;
#X msg 585 393 1 \, 9 200;
#X obj 670 373 f;
#X obj 713 375 + 1;
#X obj 627 350 tgl 16 0 empty empty empty 0 -8 0 10 #fcfcfc #000000 #000000 0 1;
#X obj 639 430 select 0 1 2 3 4;
#X obj 660 404 mod 5;
#X obj 669 352 metro 200;
#X obj 959 277 line;
#X msg 1027 313 1 50 \, 0 1000 75;
#X obj 945 336 osc~;
#X msg 973 249 100 \, 0 200;
#X obj 1080 422 vsl 19 162 0 1 0 0 empty empty empty 0 -9 0 12 #fcfcfc #000000 #000000 0 1;
#X obj 561 718 vsl 19 162 0 1 0 0 empty empty empty 0 -9 0 12 #fcfcfc #000000 #000000 0 1;
#X obj 966 444 *~ 0;
#X obj 439 829 *~ 0;
#X text 451 198 Trigger when picking up rotating cube...;
#X text 946 189 Trigger bump when running into a wall;
#X text 1069 394 volume of bump noise;
#X text 550 686 volume of pickup sfx;
#X text 644 319 Plays sequence of notes then stops when picking up last cube;
#X msg 562 458 7 80;
#X msg 600 459 9 80;
#X msg 637 459 12 80;
#X msg 683 459 9 80;
#X obj 739 1254 metro 4000;
#X obj 759 1110 tgl 15 0 empty empty empty 17 7 0 10 #fcfcfc #000000 #000000 0 1;
#X floatatom 815 1115 5 0 0 0 - - - 0;
#X obj 672 1319 f;
#X obj 715 1321 + 1;
#X floatatom 1150 1499 5 0 0 0 - - - 0;
#X obj 1150 1446 loadbang;
#X obj 800 1037 loadbang;
#X msg 816 1081 500;
#X obj 706 1038 r oscplayseq;
#X msg 1150 1473 48;
#X msg 498 1551 0;
#X msg 547 1551 4;
#X msg 588 1550 9;
#X msg 628 1549 11;
#X msg 675 1548 16;
#X msg 719 1548 4;
#X msg 763 1549 9;
#X floatatom 669 1729 5 0 0 0 - - - 0;
#X obj 666 1804 *~;
#X obj 663 1886 dac~;
#X obj 668 1698 mtof;
#X obj 744 1752 vline~;
#X msg 744 1700 1 25 \, 0 25 75;
#X obj 669 1757 osc~;
#X obj 811 1741 vsl 19 162 0 1 0 0 empty empty empty 0 -9 0 12 #fcfcfc #000000 #000000 0 1;
#X obj 666 1846 *~ 0;
#X obj 667 1630 + 48;
#X msg 458 1162 0;
#X text 493 1162 Reset value of variable to 0;
#X msg 803 1548 0;
#X msg 842 1548 18;
#X msg 883 1548 6;
#X msg 923 1548 11;
#X msg 967 1549 8;
#X msg 1006 1548 4;
#X floatatom 909 1280 5 0 0 0 - - - 0;
#X obj 895 1225 r osctrig;
#X text 539 1008 Sequence playback: Music gets longer as more cubes are collected.;
#X obj 912 1335 + 7;
#X obj 777 1418 mod 0;
#X floatatom 891 1369 5 0 0 0 - - - 0;
#X floatatom 613 1420 5 0 0 0 - - - 0;
#X msg 1047 1548 2;
#X msg 1086 1547 1;
#X obj 615 1457 select 0 1 2 3 4 5 6 7 8 9 10 11 12 13 14;
#X text 528 1270 increment variable by 1 with each metronome tick;
#X text 948 1332 increment input by 7 because default loop length is 8;
#X text 536 1396 debug box to see sent value;
#X text 372 1540 sequence of notes;
#X text 839 1779 volume control (min 0 \, max 1);
#X text 891 1198 Trigger when picking up rotating cube...;
#X text 952 1282 debug box to see sent value;
#X text 772 1351 debug box to see sent value;
#X text 819 1417 sort sent value into repeating note sequence;
#X text 563 1109 toggle to enable metronome;
#X text 1437 266 Sequence playback: outdated \, do note use;
#X connect 4 0 8 0;
#X connect 6 0 7 0;
#X connect 8 0 11 0;
#X connect 9 0 8 0;
#X connect 12 0 13 0;
#X connect 13 0 21 0;
#X connect 15 0 16 0;
#X connect 16 0 19 0;
#X connect 17 0 16 1;
#X connect 19 0 18 0;
#X connect 19 0 18 1;
#X connect 20 0 19 1;
#X connect 21 0 17 0;
#X connect 24 0 27 0;
#X connect 24 0 50 0;
#X connect 25 0 24 0;
#X connect 26 0 24 1;
#X connect 27 0 28 0;
#X connect 27 0 55 0;
#X connect 28 0 27 1;
#X connect 29 0 54 0;
#X connect 30 0 35 0;
#X connect 31 0 26 0;
#X connect 32 0 33 0;
#X connect 33 0 26 0;
#X connect 34 0 25 0;
#X connect 34 0 33 0;
#X connect 35 0 29 0;
#X connect 36 0 54 0;
#X connect 37 0 41 0;
#X connect 38 0 54 0;
#X connect 39 0 54 0;
#X connect 40 0 54 0;
#X connect 41 0 36 0;
#X connect 41 1 38 0;
#X connect 41 2 39 0;
#X connect 41 3 40 0;
#X connect 41 4 42 0;
#X connect 41 5 43 0;
#X connect 41 6 44 0;
#X connect 42 0 54 0;
#X connect 43 0 54 0;
#X connect 44 0 54 0;
#X connect 45 0 51 0;
#X connect 46 0 53 0;
#X connect 48 0 45 0;
#X connect 49 0 46 1;
#X connect 50 0 49 0;
#X connect 51 0 46 0;
#X connect 52 0 53 1;
#X connect 53 0 47 0;
#X connect 53 0 47 1;
#X connect 54 0 48 0;
#X connect 55 0 37 0;
#X connect 56 0 77 0;
#X connect 56 1 78 0;
#X connect 56 2 79 0;
#X connect 56 3 80 0;
#X connect 56 4 81 0;
#X connect 56 5 82 0;
#X connect 56 6 83 0;
#X connect 56 7 84 0;
#X connect 56 8 87 0;
#X connect 57 0 70 0;
#X connect 57 0 74 0;
#X connect 58 0 98 0;
#X connect 60 0 57 0;
#X connect 61 0 60 0;
#X connect 61 0 76 0;
#X connect 62 0 58 1;
#X connect 63 0 61 1;
#X connect 64 0 73 0;
#X connect 65 0 56 0;
#X connect 66 0 65 0;
#X connect 67 0 97 0;
#X connect 69 0 67 1;
#X connect 70 0 58 0;
#X connect 71 0 94 0;
#X connect 72 0 58 0;
#X connect 73 0 63 0;
#X connect 74 0 72 0;
#X connect 75 0 61 0;
#X connect 76 0 62 0;
#X connect 77 0 75 0;
#X connect 78 0 75 0;
#X connect 79 0 75 0;
#X connect 80 0 75 0;
#X connect 81 0 75 0;
#X connect 82 0 75 0;
#X connect 83 0 75 0;
#X connect 84 0 75 0;
#X connect 85 0 86 0;
#X connect 85 0 89 0;
#X connect 86 0 85 1;
#X connect 87 0 90 0;
#X connect 88 0 104 0;
#X connect 88 1 105 0;
#X connect 88 2 106 0;
#X connect 88 3 107 0;
#X connect 88 4 87 0;
#X connect 89 0 88 0;
#X connect 90 0 85 0;
#X connect 91 0 92 0;
#X connect 91 0 93 0;
#X connect 92 0 69 0;
#X connect 93 0 67 0;
#X connect 94 0 91 0;
#X connect 95 0 97 1;
#X connect 96 0 98 1;
#X connect 97 0 68 0;
#X connect 97 0 68 1;
#X connect 98 0 59 0;
#X connect 98 0 59 1;
#X connect 104 0 75 0;
#X connect 105 0 75 0;
#X connect 106 0 75 0;
#X connect 107 0 75 0;
#X connect 108 0 111 0;
#X connect 108 0 131 0;
#X connect 109 0 108 0;
#X connect 110 0 108 1;
#X connect 111 0 112 0;
#X connect 111 0 148 0;
#X connect 112 0 111 1;
#X connect 113 0 135 0;
#X connect 114 0 118 0;
#X connect 115 0 116 0;
#X connect 116 0 110 0;
#X connect 117 0 109 0;
#X connect 117 0 116 0;
#X connect 118 0 113 0;
#X connect 119 0 135 0;
#X connect 120 0 135 0;
#X connect 121 0 135 0;
#X connect 122 0 135 0;
#X connect 123 0 135 0;
#X connect 124 0 135 0;
#X connect 125 0 135 0;
#X connect 126 0 132 0;
#X connect 127 0 134 0;
#X connect 129 0 126 0;
#X connect 130 0 127 1;
#X connect 131 0 130 0;
#X connect 132 0 127 0;
#X connect 133 0 134 1;
#X connect 134 0 128 0;
#X connect 134 0 128 1;
#X connect 135 0 129 0;
#X connect 136 0 111 0;
#X connect 138 0 135 0;
#X connect 139 0 135 0;
#X connect 140 0 135 0;
#X connect 141 0 135 0;
#X connect 142 0 135 0;
#X connect 143 0 135 0;
#X connect 144 0 147 0;
#X connect 145 0 144 0;
#X connect 147 0 149 0;
#X connect 148 0 150 0;
#X connect 149 0 148 1;
#X connect 150 0 153 0;
#X connect 151 0 135 0;
#X connect 152 0 135 0;
#X connect 153 0 119 0;
#X connect 153 1 120 0;
#X connect 153 2 121 0;
#X connect 153 3 122 0;
#X connect 153 4 123 0;
#X connect 153 5 124 0;
#X connect 153 6 125 0;
#X connect 153 7 138 0;
#X connect 153 8 139 0;
#X connect 153 9 140 0;
#X connect 153 10 141 0;
#X connect 153 11 142 0;
#X connect 153 12 143 0;
#X connect 153 13 151 0;
#X connect 153 14 152 0;
